<?xml version="1.0" encoding="UTF-8"?>
<svg version="1.1" xmlns="http://www.w3.org/2000/svg" width="237" height="237">
<path d="M0 0 C2.04678756 0.00536191 4.09335577 0.0000225 6.14013672 -0.00634766 C15.92550053 -0.01189987 25.16513186 0.17578334 34.55029297 3.13037109 C35.96553242 3.46971289 37.38225221 3.80293259 38.80029297 4.13037109 C42.55029297 5.13037109 42.55029297 5.13037109 45.55029297 7.13037109 C46.99565599 7.64734551 48.45582554 8.12402172 49.92529297 8.56787109 C54.47626797 10.03306305 58.132486 11.71256413 61.55029297 15.13037109 C62.87497043 15.81407559 64.20892929 16.48001295 65.55029297 17.13037109 C68.55029297 19.13037109 68.55029297 19.13037109 70.55029297 21.13037109 C71.21029297 21.46037109 71.87029297 21.79037109 72.55029297 22.13037109 C73.54029297 23.12037109 73.54029297 23.12037109 74.55029297 24.13037109 C75.21029297 24.46037109 75.87029297 24.79037109 76.55029297 25.13037109 C77.75685547 26.36787109 77.75685547 26.36787109 78.98779297 27.63037109 C81.36149534 30.30973747 81.36149534 30.30973747 84.55029297 31.13037109 C84.55029297 31.79037109 84.55029297 32.45037109 84.55029297 33.13037109 C85.21029297 33.13037109 85.87029297 33.13037109 86.55029297 33.13037109 C88.20654297 34.73974609 88.20654297 34.73974609 90.05029297 36.88037109 C90.65873047 37.57646484 91.26716797 38.27255859 91.89404297 38.98974609 C93.55029297 41.13037109 93.55029297 41.13037109 94.64013672 43.33349609 C95.42084187 45.32470991 95.42084187 45.32470991 97.61279297 46.13037109 C99.55029297 47.13037109 99.55029297 47.13037109 100.30029297 49.25537109 C100.38279297 49.87412109 100.46529297 50.49287109 100.55029297 51.13037109 C101.21029297 51.13037109 101.87029297 51.13037109 102.55029297 51.13037109 C103.75657304 53.46251257 104.71576676 55.62679248 105.55029297 58.13037109 C106.54029297 58.79037109 107.53029297 59.45037109 108.55029297 60.13037109 C108.88029297 61.12037109 109.21029297 62.11037109 109.55029297 63.13037109 C110.02337891 63.75041016 110.49646484 64.37044922 110.98388672 65.00927734 C112.67236001 67.29566387 113.60382706 69.41678253 114.61279297 72.06787109 C115.09425781 73.31890625 115.09425781 73.31890625 115.58544922 74.59521484 C115.90384766 75.43181641 116.22224609 76.26841797 116.55029297 77.13037109 C116.94087891 78.01853516 117.33146484 78.90669922 117.73388672 79.82177734 C118.00330078 80.58361328 118.27271484 81.34544922 118.55029297 82.13037109 C118.22029297 82.79037109 117.89029297 83.45037109 117.55029297 84.13037109 C118.21029297 84.46037109 118.87029297 84.79037109 119.55029297 85.13037109 C119.22029297 85.79037109 118.89029297 86.45037109 118.55029297 87.13037109 C119.21029297 87.46037109 119.87029297 87.79037109 120.55029297 88.13037109 C121.64066225 91.10410549 121.58893463 92.01444611 120.55029297 95.13037109 C121.21029297 95.46037109 121.87029297 95.79037109 122.55029297 96.13037109 C124.30963855 103.61335643 123.7044746 111.89753337 123.68066406 119.52514648 C123.67531117 121.56094845 123.68063683 123.59652898 123.68701172 125.63232422 C123.67962121 133.18912196 123.41608889 140.62121853 122.55029297 148.13037109 C121.89029297 148.13037109 121.23029297 148.13037109 120.55029297 148.13037109 C120.40591797 149.14099609 120.26154297 150.15162109 120.11279297 151.19287109 C119.92716797 152.49224609 119.74154297 153.79162109 119.55029297 155.13037109 C119.38529297 156.36787109 119.22029297 157.60537109 119.05029297 158.88037109 C118.54383387 162.17235521 117.91214835 164.53824411 116.17529297 167.38037109 C114.42121472 170.20136543 114.42121472 170.20136543 113.05029297 173.75537109 C111.72231359 176.7433247 110.87308934 178.01873803 108.55029297 180.13037109 C108.22029297 181.12037109 107.89029297 182.11037109 107.55029297 183.13037109 C101.55029297 192.13037109 101.55029297 192.13037109 98.55029297 195.13037109 C98.22029297 195.79037109 97.89029297 196.45037109 97.55029297 197.13037109 C96.53538133 198.05640629 95.48852262 198.9477392 94.42529297 199.81787109 C90.61377769 203.02964484 86.78014091 206.3213103 83.55029297 210.13037109 C83.55029297 210.79037109 83.55029297 211.45037109 83.55029297 212.13037109 C81.07529297 213.12037109 81.07529297 213.12037109 78.55029297 214.13037109 C78.55029297 214.79037109 78.55029297 215.45037109 78.55029297 216.13037109 C77.56029297 216.46037109 76.57029297 216.79037109 75.55029297 217.13037109 C74.56029297 217.79037109 73.57029297 218.45037109 72.55029297 219.13037109 C69.55029297 221.13037109 69.55029297 221.13037109 67.67529297 222.00537109 C65.40304787 223.1066476 65.40304787 223.1066476 63.23779297 225.13037109 C60.09277795 227.47084739 57.32612625 228.1692499 53.55029297 229.13037109 C52.89029297 229.46037109 52.23029297 229.79037109 51.55029297 230.13037109 C48.67569322 231.56767097 45.63975002 232.27218858 42.55029297 233.13037109 C41.89029297 233.46037109 41.23029297 233.79037109 40.55029297 234.13037109 C39.89029297 233.80037109 39.23029297 233.47037109 38.55029297 233.13037109 C38.22029297 233.79037109 37.89029297 234.45037109 37.55029297 235.13037109 C27.81033638 237.47047869 17.75320583 237.410479 7.80029297 237.31787109 C6.45524152 237.31640802 5.11018895 237.31575501 3.76513672 237.31591797 C-5.95904827 237.27263525 -15.1283862 237.06486098 -24.44970703 234.13037109 C-25.86494648 233.79102929 -27.28166628 233.4578096 -28.69970703 233.13037109 C-32.44970703 232.13037109 -32.44970703 232.13037109 -35.44970703 230.13037109 C-36.89507005 229.61339668 -38.3552396 229.13672047 -39.82470703 228.69287109 C-44.37568203 227.22767914 -48.03190007 225.54817806 -51.44970703 222.13037109 C-52.43970703 221.80037109 -53.42970703 221.47037109 -54.44970703 221.13037109 C-55.43970703 220.14037109 -55.43970703 220.14037109 -56.44970703 219.13037109 C-58.41259037 217.59686849 -60.22000859 216.24522031 -62.44970703 215.13037109 C-63.43970703 214.14037109 -63.43970703 214.14037109 -64.44970703 213.13037109 C-65.10970703 212.80037109 -65.76970703 212.47037109 -66.44970703 212.13037109 C-68.1163737 210.46370443 -69.78304036 208.79703776 -71.44970703 207.13037109 C-72.6095074 206.14308108 -73.77648128 205.1641691 -74.94970703 204.19287109 C-78.22289478 201.42979053 -80.75853015 198.45893197 -83.44970703 195.13037109 C-84.33658203 194.26412109 -85.22345703 193.39787109 -86.13720703 192.50537109 C-88.18924654 190.39787106 -89.35321751 188.82175445 -90.44970703 186.13037109 C-91.10970703 186.13037109 -91.76970703 186.13037109 -92.44970703 186.13037109 C-92.57345703 185.51162109 -92.69720703 184.89287109 -92.82470703 184.25537109 C-93.60852612 181.59038621 -95.03145588 180.5003625 -97.07470703 178.69287109 C-98.44970703 177.13037109 -98.44970703 177.13037109 -98.44970703 174.13037109 C-99.02720703 173.59412109 -99.60470703 173.05787109 -100.19970703 172.50537109 C-104.92897529 167.51336571 -106.72499452 160.65963988 -108.44970703 154.13037109 C-108.84158203 153.03724609 -109.23345703 151.94412109 -109.63720703 150.81787109 C-110.44970703 148.13037109 -110.44970703 148.13037109 -109.44970703 146.13037109 C-110.10970703 145.80037109 -110.76970703 145.47037109 -111.44970703 145.13037109 C-111.11970703 144.14037109 -110.78970703 143.15037109 -110.44970703 142.13037109 C-111.10970703 142.13037109 -111.76970703 142.13037109 -112.44970703 142.13037109 C-113.39001525 133.96532566 -113.60588129 125.87548659 -113.58007812 117.66015625 C-113.57471458 115.63322474 -113.5800595 113.60651472 -113.58642578 111.57958984 C-113.57902588 104.03908749 -113.31262338 96.62339413 -112.44970703 89.13037109 C-111.78970703 89.13037109 -111.12970703 89.13037109 -110.44970703 89.13037109 C-110.49095703 87.89287109 -110.53220703 86.65537109 -110.57470703 85.38037109 C-110.57470703 82.00209071 -110.15993589 80.07576524 -108.44970703 77.13037109 C-108.11970703 75.97537109 -107.78970703 74.82037109 -107.44970703 73.63037109 C-106.64303435 70.8070167 -105.84196771 68.66919938 -104.44970703 66.13037109 C-103.97533203 65.11974609 -103.50095703 64.10912109 -103.01220703 63.06787109 C-101.6420622 60.49199882 -100.50762838 59.09475057 -98.44970703 57.13037109 C-98.11970703 56.14037109 -97.78970703 55.15037109 -97.44970703 54.13037109 C-91.44970703 45.13037109 -91.44970703 45.13037109 -88.44970703 42.13037109 C-88.11970703 41.47037109 -87.78970703 40.81037109 -87.44970703 40.13037109 C-86.4347954 39.2043359 -85.38793669 38.31300299 -84.32470703 37.44287109 C-80.51319175 34.23109735 -76.67955497 30.93943188 -73.44970703 27.13037109 C-73.44970703 26.47037109 -73.44970703 25.81037109 -73.44970703 25.13037109 C-71.79970703 24.47037109 -70.14970703 23.81037109 -68.44970703 23.13037109 C-68.44970703 22.47037109 -68.44970703 21.81037109 -68.44970703 21.13037109 C-67.45970703 20.80037109 -66.46970703 20.47037109 -65.44970703 20.13037109 C-64.45970703 19.47037109 -63.46970703 18.81037109 -62.44970703 18.13037109 C-59.44970703 16.13037109 -59.44970703 16.13037109 -57.57470703 15.25537109 C-55.30246193 14.15409459 -55.30246193 14.15409459 -53.13720703 12.13037109 C-49.99219201 9.7898948 -47.22554031 9.09149229 -43.44970703 8.13037109 C-42.78970703 7.80037109 -42.12970703 7.47037109 -41.44970703 7.13037109 C-38.56574599 5.68839058 -35.5575244 4.96282217 -32.44970703 4.13037109 C-31.72783203 3.92412109 -31.00595703 3.71787109 -30.26220703 3.50537109 C-28.44970703 3.13037109 -28.44970703 3.13037109 -24.44970703 3.13037109 C-24.11970703 2.47037109 -23.78970703 1.81037109 -23.44970703 1.13037109 C-15.92945526 -0.63996876 -7.68509271 -0.02391817 0 0 Z " fill="#E5E5E5" transform="translate(113.44970703125,-0.13037109375)"/>
<path d="M0 0 C2.04678756 0.00536191 4.09335577 0.0000225 6.14013672 -0.00634766 C15.92550053 -0.01189987 25.16513186 0.17578334 34.55029297 3.13037109 C35.96553242 3.46971289 37.38225221 3.80293259 38.80029297 4.13037109 C42.55029297 5.13037109 42.55029297 5.13037109 45.55029297 7.13037109 C46.99565599 7.64734551 48.45582554 8.12402172 49.92529297 8.56787109 C54.47626797 10.03306305 58.132486 11.71256413 61.55029297 15.13037109 C62.87497043 15.81407559 64.20892929 16.48001295 65.55029297 17.13037109 C68.55029297 19.13037109 68.55029297 19.13037109 70.55029297 21.13037109 C71.21029297 21.46037109 71.87029297 21.79037109 72.55029297 22.13037109 C73.54029297 23.12037109 73.54029297 23.12037109 74.55029297 24.13037109 C75.21029297 24.46037109 75.87029297 24.79037109 76.55029297 25.13037109 C77.75685547 26.36787109 77.75685547 26.36787109 78.98779297 27.63037109 C81.36149534 30.30973747 81.36149534 30.30973747 84.55029297 31.13037109 C84.55029297 31.79037109 84.55029297 32.45037109 84.55029297 33.13037109 C85.21029297 33.13037109 85.87029297 33.13037109 86.55029297 33.13037109 C88.20654297 34.73974609 88.20654297 34.73974609 90.05029297 36.88037109 C90.65873047 37.57646484 91.26716797 38.27255859 91.89404297 38.98974609 C93.55029297 41.13037109 93.55029297 41.13037109 94.64013672 43.33349609 C95.42084187 45.32470991 95.42084187 45.32470991 97.61279297 46.13037109 C99.55029297 47.13037109 99.55029297 47.13037109 100.30029297 49.25537109 C100.38279297 49.87412109 100.46529297 50.49287109 100.55029297 51.13037109 C101.21029297 51.13037109 101.87029297 51.13037109 102.55029297 51.13037109 C103.75657304 53.46251257 104.71576676 55.62679248 105.55029297 58.13037109 C106.54029297 58.79037109 107.53029297 59.45037109 108.55029297 60.13037109 C108.88029297 61.12037109 109.21029297 62.11037109 109.55029297 63.13037109 C110.02337891 63.75041016 110.49646484 64.37044922 110.98388672 65.00927734 C112.67236001 67.29566387 113.60382706 69.41678253 114.61279297 72.06787109 C115.09425781 73.31890625 115.09425781 73.31890625 115.58544922 74.59521484 C115.90384766 75.43181641 116.22224609 76.26841797 116.55029297 77.13037109 C116.94087891 78.01853516 117.33146484 78.90669922 117.73388672 79.82177734 C118.00330078 80.58361328 118.27271484 81.34544922 118.55029297 82.13037109 C118.22029297 82.79037109 117.89029297 83.45037109 117.55029297 84.13037109 C118.21029297 84.46037109 118.87029297 84.79037109 119.55029297 85.13037109 C119.22029297 85.79037109 118.89029297 86.45037109 118.55029297 87.13037109 C119.21029297 87.46037109 119.87029297 87.79037109 120.55029297 88.13037109 C121.64066225 91.10410549 121.58893463 92.01444611 120.55029297 95.13037109 C121.21029297 95.46037109 121.87029297 95.79037109 122.55029297 96.13037109 C124.30963855 103.61335643 123.7044746 111.89753337 123.68066406 119.52514648 C123.67531117 121.56094845 123.68063683 123.59652898 123.68701172 125.63232422 C123.67962121 133.18912196 123.41608889 140.62121853 122.55029297 148.13037109 C121.89029297 148.13037109 121.23029297 148.13037109 120.55029297 148.13037109 C120.40591797 149.14099609 120.26154297 150.15162109 120.11279297 151.19287109 C119.92716797 152.49224609 119.74154297 153.79162109 119.55029297 155.13037109 C119.38529297 156.36787109 119.22029297 157.60537109 119.05029297 158.88037109 C118.54383387 162.17235521 117.91214835 164.53824411 116.17529297 167.38037109 C114.42121472 170.20136543 114.42121472 170.20136543 113.05029297 173.75537109 C111.72231359 176.7433247 110.87308934 178.01873803 108.55029297 180.13037109 C108.22029297 181.12037109 107.89029297 182.11037109 107.55029297 183.13037109 C101.55029297 192.13037109 101.55029297 192.13037109 98.55029297 195.13037109 C98.22029297 195.79037109 97.89029297 196.45037109 97.55029297 197.13037109 C96.53538133 198.05640629 95.48852262 198.9477392 94.42529297 199.81787109 C90.61377769 203.02964484 86.78014091 206.3213103 83.55029297 210.13037109 C83.55029297 210.79037109 83.55029297 211.45037109 83.55029297 212.13037109 C81.07529297 213.12037109 81.07529297 213.12037109 78.55029297 214.13037109 C78.55029297 214.79037109 78.55029297 215.45037109 78.55029297 216.13037109 C77.56029297 216.46037109 76.57029297 216.79037109 75.55029297 217.13037109 C74.56029297 217.79037109 73.57029297 218.45037109 72.55029297 219.13037109 C69.55029297 221.13037109 69.55029297 221.13037109 67.67529297 222.00537109 C65.40304787 223.1066476 65.40304787 223.1066476 63.23779297 225.13037109 C60.09277795 227.47084739 57.32612625 228.1692499 53.55029297 229.13037109 C52.89029297 229.46037109 52.23029297 229.79037109 51.55029297 230.13037109 C48.67569322 231.56767097 45.63975002 232.27218858 42.55029297 233.13037109 C41.89029297 233.46037109 41.23029297 233.79037109 40.55029297 234.13037109 C39.89029297 233.80037109 39.23029297 233.47037109 38.55029297 233.13037109 C38.22029297 233.79037109 37.89029297 234.45037109 37.55029297 235.13037109 C27.81033638 237.47047869 17.75320583 237.410479 7.80029297 237.31787109 C6.45524152 237.31640802 5.11018895 237.31575501 3.76513672 237.31591797 C-5.95904827 237.27263525 -15.1283862 237.06486098 -24.44970703 234.13037109 C-25.86494648 233.79102929 -27.28166628 233.4578096 -28.69970703 233.13037109 C-32.44970703 232.13037109 -32.44970703 232.13037109 -35.44970703 230.13037109 C-36.89507005 229.61339668 -38.3552396 229.13672047 -39.82470703 228.69287109 C-44.37568203 227.22767914 -48.03190007 225.54817806 -51.44970703 222.13037109 C-52.43970703 221.80037109 -53.42970703 221.47037109 -54.44970703 221.13037109 C-55.43970703 220.14037109 -55.43970703 220.14037109 -56.44970703 219.13037109 C-58.41259037 217.59686849 -60.22000859 216.24522031 -62.44970703 215.13037109 C-63.43970703 214.14037109 -63.43970703 214.14037109 -64.44970703 213.13037109 C-65.10970703 212.80037109 -65.76970703 212.47037109 -66.44970703 212.13037109 C-68.1163737 210.46370443 -69.78304036 208.79703776 -71.44970703 207.13037109 C-72.6095074 206.14308108 -73.77648128 205.1641691 -74.94970703 204.19287109 C-78.22289478 201.42979053 -80.75853015 198.45893197 -83.44970703 195.13037109 C-84.33658203 194.26412109 -85.22345703 193.39787109 -86.13720703 192.50537109 C-88.18924654 190.39787106 -89.35321751 188.82175445 -90.44970703 186.13037109 C-91.10970703 186.13037109 -91.76970703 186.13037109 -92.44970703 186.13037109 C-92.57345703 185.51162109 -92.69720703 184.89287109 -92.82470703 184.25537109 C-93.60852612 181.59038621 -95.03145588 180.5003625 -97.07470703 178.69287109 C-98.44970703 177.13037109 -98.44970703 177.13037109 -98.44970703 174.13037109 C-99.02720703 173.59412109 -99.60470703 173.05787109 -100.19970703 172.50537109 C-104.92897529 167.51336571 -106.72499452 160.65963988 -108.44970703 154.13037109 C-108.84158203 153.03724609 -109.23345703 151.94412109 -109.63720703 150.81787109 C-110.44970703 148.13037109 -110.44970703 148.13037109 -109.44970703 146.13037109 C-110.10970703 145.80037109 -110.76970703 145.47037109 -111.44970703 145.13037109 C-111.11970703 144.14037109 -110.78970703 143.15037109 -110.44970703 142.13037109 C-111.10970703 142.13037109 -111.76970703 142.13037109 -112.44970703 142.13037109 C-113.39001525 133.96532566 -113.60588129 125.87548659 -113.58007812 117.66015625 C-113.57471458 115.63322474 -113.5800595 113.60651472 -113.58642578 111.57958984 C-113.57902588 104.03908749 -113.31262338 96.62339413 -112.44970703 89.13037109 C-111.78970703 89.13037109 -111.12970703 89.13037109 -110.44970703 89.13037109 C-110.49095703 87.89287109 -110.53220703 86.65537109 -110.57470703 85.38037109 C-110.57470703 82.00209071 -110.15993589 80.07576524 -108.44970703 77.13037109 C-108.11970703 75.97537109 -107.78970703 74.82037109 -107.44970703 73.63037109 C-106.64303435 70.8070167 -105.84196771 68.66919938 -104.44970703 66.13037109 C-103.97533203 65.11974609 -103.50095703 64.10912109 -103.01220703 63.06787109 C-101.6420622 60.49199882 -100.50762838 59.09475057 -98.44970703 57.13037109 C-98.11970703 56.14037109 -97.78970703 55.15037109 -97.44970703 54.13037109 C-91.44970703 45.13037109 -91.44970703 45.13037109 -88.44970703 42.13037109 C-88.11970703 41.47037109 -87.78970703 40.81037109 -87.44970703 40.13037109 C-86.4347954 39.2043359 -85.38793669 38.31300299 -84.32470703 37.44287109 C-80.51319175 34.23109735 -76.67955497 30.93943188 -73.44970703 27.13037109 C-73.44970703 26.47037109 -73.44970703 25.81037109 -73.44970703 25.13037109 C-71.79970703 24.47037109 -70.14970703 23.81037109 -68.44970703 23.13037109 C-68.44970703 22.47037109 -68.44970703 21.81037109 -68.44970703 21.13037109 C-67.45970703 20.80037109 -66.46970703 20.47037109 -65.44970703 20.13037109 C-64.45970703 19.47037109 -63.46970703 18.81037109 -62.44970703 18.13037109 C-59.44970703 16.13037109 -59.44970703 16.13037109 -57.57470703 15.25537109 C-55.30246193 14.15409459 -55.30246193 14.15409459 -53.13720703 12.13037109 C-49.99219201 9.7898948 -47.22554031 9.09149229 -43.44970703 8.13037109 C-42.78970703 7.80037109 -42.12970703 7.47037109 -41.44970703 7.13037109 C-38.56574599 5.68839058 -35.5575244 4.96282217 -32.44970703 4.13037109 C-31.72783203 3.92412109 -31.00595703 3.71787109 -30.26220703 3.50537109 C-28.44970703 3.13037109 -28.44970703 3.13037109 -24.44970703 3.13037109 C-24.11970703 2.47037109 -23.78970703 1.81037109 -23.44970703 1.13037109 C-15.92945526 -0.63996876 -7.68509271 -0.02391817 0 0 Z M-30.44970703 9.13037109 C-31.56603516 9.49259766 -32.68236328 9.85482422 -33.83251953 10.22802734 C-62.09232029 20.2721734 -85.20481876 40.41705054 -98.26220703 67.44287109 C-105.40567144 82.76598115 -108.62871949 97.41917099 -108.63720703 114.31787109 C-108.65557617 116.21375977 -108.65557617 116.21375977 -108.67431641 118.14794922 C-108.68605616 125.71226512 -108.16867648 132.7607232 -106.44970703 140.13037109 C-106.2833374 140.85168213 -106.11696777 141.57299316 -105.94555664 142.31616211 C-99.22198977 169.61130149 -82.49499089 193.75531512 -58.82080078 209.14208984 C-39.61589496 220.46920116 -20.92684987 226.51523395 1.55029297 226.38037109 C2.83935547 226.38810547 4.12841797 226.39583984 5.45654297 226.40380859 C34.25356097 226.34527807 61.10520528 213.98445374 81.70263672 194.07177734 C103.83180307 171.7626381 112.90465238 142.95985735 112.86499023 112.10449219 C112.65419388 81.16524469 99.23520483 55.38779349 77.47167969 33.74902344 C72.85114933 29.27259278 68.03449561 25.50987194 62.55029297 22.13037109 C61.65181641 21.54900391 60.75333984 20.96763672 59.82763672 20.36865234 C33.78469245 4.21010954 -1.28885664 -0.60054725 -30.44970703 9.13037109 Z " fill="#030303" transform="translate(113.44970703125,-0.13037109375)"/>
<path d="M0 0 C1.74023438 0.00966797 1.74023438 0.00966797 3.515625 0.01953125 C4.7221875 0.03628906 5.92875 0.05304688 7.171875 0.0703125 C9.00492188 0.08384766 9.00492188 0.08384766 10.875 0.09765625 C13.89082282 0.12121737 16.90624992 0.15411544 19.921875 0.1953125 C19.921875 3.4953125 19.921875 6.7953125 19.921875 10.1953125 C18.271875 10.1953125 16.621875 10.1953125 14.921875 10.1953125 C14.97988281 10.78699219 15.03789062 11.37867188 15.09765625 11.98828125 C15.3467187 16.35043207 15.42903205 18.49424246 12.796875 22.1328125 C7.97698853 25.59055714 3.82232049 26.5976156 -2.078125 26.1953125 C-2.738125 25.8653125 -3.398125 25.5353125 -4.078125 25.1953125 C-4.078125 26.5153125 -4.078125 27.8353125 -4.078125 29.1953125 C-2.84835938 29.22109375 -1.61859375 29.246875 -0.3515625 29.2734375 C1.28128432 29.32974256 2.91409545 29.38708935 4.546875 29.4453125 C5.35511719 29.45949219 6.16335937 29.47367188 6.99609375 29.48828125 C12.53196068 29.71331649 15.64941129 30.61021677 19.921875 34.1953125 C21.6943356 37.7402337 20.94398159 41.46268274 19.921875 45.1953125 C15.11978256 50.85931897 8.54457098 52.69239625 1.30078125 53.48046875 C-5.13411007 53.70573892 -9.6402041 52.52422666 -15.015625 48.8828125 C-16.71029773 46.19127347 -16.51313304 44.30251279 -16.078125 41.1953125 C-14.078125 38.3203125 -14.078125 38.3203125 -12.078125 36.1953125 C-12.738125 35.2053125 -13.398125 34.2153125 -14.078125 33.1953125 C-14.4249852 29.37985028 -14.61179395 27.06252454 -12.578125 23.7578125 C-12.083125 23.2421875 -11.588125 22.7265625 -11.078125 22.1953125 C-11.738125 21.5559375 -12.398125 20.9165625 -13.078125 20.2578125 C-15.74935713 16.16748831 -16.0596237 12.96019509 -15.078125 8.1953125 C-11.63197591 1.76613316 -6.95656147 -0.06820158 0 0 Z " fill="#050505" transform="translate(159.078125,135.8046875)"/>
<path d="M0 0 C3.96 0 7.92 0 12 0 C14.70284626 6.89225797 16.87128982 13.91150317 19 21 C21.04661262 15.12143184 22.79453789 9.21469205 24.3515625 3.1875 C25 1 25 1 26 0 C28.01964199 -0.07244053 30.04167124 -0.08377188 32.0625 -0.0625 C33.71958984 -0.04896484 33.71958984 -0.04896484 35.41015625 -0.03515625 C36.26480469 -0.02355469 37.11945313 -0.01195312 38 0 C35.7878716 7.63440487 33.3383347 15.18135366 30.77587891 22.70507812 C30.34123752 23.98715609 29.91090848 25.27070393 29.48486328 26.55566406 C23.65300098 44.1361593 23.65300098 44.1361593 17 50 C13.85069107 51.04976964 11.61185544 51.10131595 8.3125 51.0625 C7.31863281 51.05347656 6.32476562 51.04445312 5.30078125 51.03515625 C4.16189453 51.01775391 4.16189453 51.01775391 3 51 C3.33 48.03 3.66 45.06 4 42 C6.64 41.01 9.28 40.02 12 39 C12.3206263 33.99737082 11.29426537 30.5623454 9.375 25.95703125 C9.10864746 25.30675461 8.84229492 24.65647797 8.56787109 23.98649597 C7.72173723 21.92427704 6.86189441 19.86817602 6 17.8125 C5.13998175 15.74542592 4.28306197 13.67720025 3.43212891 11.60636902 C2.6620312 9.73454068 1.88204237 7.8667908 1.1015625 5.99926758 C0 3 0 3 0 0 Z " fill="#070707" transform="translate(102,136)"/>
<path d="M0 0 C1.95825873 -0.02694851 3.91662226 -0.04637218 5.875 -0.0625 C6.96554688 -0.07410156 8.05609375 -0.08570313 9.1796875 -0.09765625 C12 0 12 0 14 1 C12.25 4.875 12.25 4.875 10 6 C2.53333333 6.35555556 2.53333333 6.35555556 -1 4 C-0.67 2.68 -0.34 1.36 0 0 Z " fill="#DFDFDF" transform="translate(154,175)"/>
<path d="M0 0 C2.625 0.375 2.625 0.375 5 1 C5.625 3.8125 5.625 3.8125 6 7 C5.01 8.485 5.01 8.485 4 10 C1.4375 10.25 1.4375 10.25 -1 10 C-2 9 -2 9 -2.1875 5.5625 C-2 2 -2 2 0 0 Z " fill="#E0E0E0" transform="translate(158,144)"/>
<path d="M0 0 C1.65322266 0.01740234 1.65322266 0.01740234 3.33984375 0.03515625 C4.99693359 0.04869141 4.99693359 0.04869141 6.6875 0.0625 C7.54214844 0.07410156 8.39679688 0.08570313 9.27734375 0.09765625 C9.27734375 0.42765625 9.27734375 0.75765625 9.27734375 1.09765625 C8.22933594 1.15373047 8.22933594 1.15373047 7.16015625 1.2109375 C5.79503906 1.30955078 5.79503906 1.30955078 4.40234375 1.41015625 C3.49742187 1.46816406 2.5925 1.52617187 1.66015625 1.5859375 C-1.08487226 1.88586015 -1.08487226 1.88586015 -2.72265625 5.09765625 C-3.28515625 3.16015625 -3.28515625 3.16015625 -3.72265625 1.09765625 C-2.72265625 0.09765625 -2.72265625 0.09765625 0 0 Z " fill="#CFCFCF" transform="translate(156.72265625,174.90234375)"/>
<path d="" fill="#000000" transform="translate(0,0)"/>
<path d="" fill="#000000" transform="translate(0,0)"/>
<path d="" fill="#000000" transform="translate(0,0)"/>
<path d="" fill="#000000" transform="translate(0,0)"/>
<path d="" fill="#000000" transform="translate(0,0)"/>
<path d="" fill="#000000" transform="translate(0,0)"/>
<path d="" fill="#000000" transform="translate(0,0)"/>
<path d="" fill="#000000" transform="translate(0,0)"/>
<path d="" fill="#000000" transform="translate(0,0)"/>
<path d="" fill="#000000" transform="translate(0,0)"/>
<path d="" fill="#000000" transform="translate(0,0)"/>
<path d="" fill="#000000" transform="translate(0,0)"/>
<path d="" fill="#000000" transform="translate(0,0)"/>
<path d="" fill="#000000" transform="translate(0,0)"/>
<path d="" fill="#000000" transform="translate(0,0)"/>
<path d="" fill="#000000" transform="translate(0,0)"/>
<path d="" fill="#000000" transform="translate(0,0)"/>
<path d="" fill="#000000" transform="translate(0,0)"/>
<path d="" fill="#000000" transform="translate(0,0)"/>
<path d="" fill="#000000" transform="translate(0,0)"/>
<path d="" fill="#000000" transform="translate(0,0)"/>
<path d="" fill="#000000" transform="translate(0,0)"/>
<path d="" fill="#000000" transform="translate(0,0)"/>
<path d="" fill="#000000" transform="translate(0,0)"/>
<path d="" fill="#000000" transform="translate(0,0)"/>
<path d="" fill="#000000" transform="translate(0,0)"/>
<path d="" fill="#000000" transform="translate(0,0)"/>
<path d="" fill="#000000" transform="translate(0,0)"/>
<path d="" fill="#000000" transform="translate(0,0)"/>
<path d="" fill="#000000" transform="translate(0,0)"/>
<path d="" fill="#000000" transform="translate(0,0)"/>
<path d="" fill="#000000" transform="translate(0,0)"/>
<path d="" fill="#000000" transform="translate(0,0)"/>
<path d="" fill="#000000" transform="translate(0,0)"/>
<path d="" fill="#000000" transform="translate(0,0)"/>
<path d="" fill="#000000" transform="translate(0,0)"/>
<path d="" fill="#000000" transform="translate(0,0)"/>
<path d="" fill="#000000" transform="translate(0,0)"/>
<path d="" fill="#000000" transform="translate(0,0)"/>
<path d="" fill="#000000" transform="translate(0,0)"/>
<path d="" fill="#000000" transform="translate(0,0)"/>
<path d="" fill="#000000" transform="translate(0,0)"/>
<path d="" fill="#000000" transform="translate(0,0)"/>
<path d="" fill="#000000" transform="translate(0,0)"/>
<path d="" fill="#000000" transform="translate(0,0)"/>
<path d="" fill="#000000" transform="translate(0,0)"/>
<path d="" fill="#000000" transform="translate(0,0)"/>
<path d="" fill="#000000" transform="translate(0,0)"/>
<path d="" fill="#000000" transform="translate(0,0)"/>
<path d="" fill="#000000" transform="translate(0,0)"/>
<path d="" fill="#000000" transform="translate(0,0)"/>
<path d="" fill="#000000" transform="translate(0,0)"/>
<path d="" fill="#000000" transform="translate(0,0)"/>
<path d="" fill="#000000" transform="translate(0,0)"/>
<path d="" fill="#000000" transform="translate(0,0)"/>
<path d="" fill="#000000" transform="translate(0,0)"/>
<path d="" fill="#000000" transform="translate(0,0)"/>
<path d="" fill="#000000" transform="translate(0,0)"/>
<path d="" fill="#000000" transform="translate(0,0)"/>
<path d="" fill="#000000" transform="translate(0,0)"/>
<path d="" fill="#000000" transform="translate(0,0)"/>
<path d="" fill="#000000" transform="translate(0,0)"/>
<path d="" fill="#000000" transform="translate(0,0)"/>
<path d="" fill="#000000" transform="translate(0,0)"/>
<path d="" fill="#000000" transform="translate(0,0)"/>
<path d="" fill="#000000" transform="translate(0,0)"/>
<path d="" fill="#000000" transform="translate(0,0)"/>
<path d="" fill="#000000" transform="translate(0,0)"/>
<path d="" fill="#000000" transform="translate(0,0)"/>
<path d="" fill="#000000" transform="translate(0,0)"/>
<path d="" fill="#000000" transform="translate(0,0)"/>
<path d="" fill="#000000" transform="translate(0,0)"/>
<path d="" fill="#000000" transform="translate(0,0)"/>
<path d="" fill="#000000" transform="translate(0,0)"/>
<path d="" fill="#000000" transform="translate(0,0)"/>
<path d="" fill="#000000" transform="translate(0,0)"/>
<path d="" fill="#000000" transform="translate(0,0)"/>
<path d="" fill="#000000" transform="translate(0,0)"/>
<path d="" fill="#000000" transform="translate(0,0)"/>
<path d="" fill="#000000" transform="translate(0,0)"/>
<path d="" fill="#000000" transform="translate(0,0)"/>
<path d="" fill="#000000" transform="translate(0,0)"/>
<path d="" fill="#000000" transform="translate(0,0)"/>
<path d="" fill="#000000" transform="translate(0,0)"/>
<path d="" fill="#000000" transform="translate(0,0)"/>
<path d="" fill="#000000" transform="translate(0,0)"/>
<path d="" fill="#000000" transform="translate(0,0)"/>
<path d="" fill="#000000" transform="translate(0,0)"/>
<path d="" fill="#000000" transform="translate(0,0)"/>
<path d="" fill="#000000" transform="translate(0,0)"/>
<path d="" fill="#000000" transform="translate(0,0)"/>
<path d="" fill="#000000" transform="translate(0,0)"/>
<path d="" fill="#000000" transform="translate(0,0)"/>
<path d="" fill="#000000" transform="translate(0,0)"/>
<path d="" fill="#000000" transform="translate(0,0)"/>
<path d="" fill="#000000" transform="translate(0,0)"/>
<path d="" fill="#000000" transform="translate(0,0)"/>
<path d="" fill="#000000" transform="translate(0,0)"/>
<path d="" fill="#000000" transform="translate(0,0)"/>
<path d="" fill="#000000" transform="translate(0,0)"/>
<path d="" fill="#000000" transform="translate(0,0)"/>
<path d="" fill="#000000" transform="translate(0,0)"/>
<path d="" fill="#000000" transform="translate(0,0)"/>
<path d="" fill="#000000" transform="translate(0,0)"/>
</svg>
